/* XPM */
static char *unison_gtk[] = {
/* columns rows colors chars-per-pixel */
"32 32 115 2",
"   c #121200",
".  c #181800",
"X  c #2B0A00",
"o  c #2C0900",
"O  c #370C00",
"+  c #3A0C00",
"@  c #3F0E00",
"#  c #211500",
"$  c #2F1300",
"%  c #2B1700",
"&  c #371000",
"*  c #3C1700",
"=  c #341900",
"-  c #311C00",
";  c #3B1A00",
":  c #3D1B00",
">  c #292900",
",  c #2C2C00",
"<  c #2E2E00",
"1  c #2F2F00",
"2  c #352000",
"3  c #3B2600",
"4  c #3F2D00",
"5  c #3F2F00",
"6  c #303000",
"7  c #323200",
"8  c #3F3300",
"9  c #3F3700",
"0  c #383800",
"q  c #3F3B00",
"w  c #3F3E00",
"e  c #3F3F00",
"r  c #410E00",
"t  c #450F00",
"y  c #461000",
"u  c #411500",
"i  c #441400",
"p  c #451E00",
"a  c #4E1E00",
"s  c #641B00",
"d  c #482E00",
"f  c #4C2D00",
"g  c #453000",
"h  c #453400",
"j  c #453800",
"k  c #453B00",
"l  c #453F00",
"z  c #732600",
"x  c #603400",
"c  c #7E3000",
"v  c #404000",
"b  c #424200",
"n  c #454300",
"m  c #454500",
"M  c #484800",
"N  c #4B4B00",
"B  c #544D00",
"V  c #574C00",
"C  c #535300",
"Z  c #545200",
"A  c #545400",
"S  c #6A4500",
"D  c #674900",
"F  c #674F00",
"G  c #675300",
"H  c #992A00",
"J  c #8E3600",
"K  c #883C00",
"L  c #A63700",
"P  c #B93D00",
"I  c #BC3D00",
"U  c #C33500",
"Y  c #E53F00",
"T  c #824100",
"R  c #824D00",
"E  c #A04F00",
"W  c #AA5300",
"Q  c #B26100",
"!  c #C14000",
"~  c #D45200",
"^  c #EA4D00",
"/  c #F24200",
"(  c #FF4600",
")  c #F35000",
"_  c #F95200",
"`  c #FF5400",
"'  c #F15D00",
"]  c #E86500",
"[  c #FF6200",
"{  c #F96C00",
"}  c #FE6F00",
"|  c #FF6F00",
" . c #E97F00",
".. c #F27700",
"X. c #FF7D00",
"o. c #878700",
"O. c #8F8F00",
"+. c #A7A700",
"@. c #FF8B00",
"#. c #FF9900",
"$. c #FFA600",
"%. c #FFB400",
"&. c #DDDD00",
"*. c #DEDE00",
"=. c #FFC100",
"-. c #FFCF00",
";. c #FFDD00",
":. c #E0E000",
">. c #E3E300",
",. c #FFEB00",
"<. c #F5F500",
"1. c #F7F700",
"2. c #FFF800",
"3. c #FFFF00",
"4. c None",
/* pixels */
"4.4.4.4.4.4.4.4.4.4.4.4.4.4.4.4.4.4.4.4.4.4.4.4.4.4.4.4.4.4.4.4.",
"4.4.4.4.4.4.4.4.  4.4.4.4.4.4.4.4.4.4.4.4.4.4.  4.4.4.4.4.4.4.4.",
"4.4.4.4.4.4.4.6 *.M 4.4.4.4.4.4.4.4.4.4.4.4.M *.6 4.4.4.4.4.4.4.",
"4.4.4.4.4.4.1 >.3.1.m 4.4.4.4.4.4.4.4.4.4.m <.3.>.6 4.4.4.4.4.4.",
"4.4.4.4.4.1 *.3.3.3.<.v 4.4.4.4.4.4.4.4.v <.3.3.3.*.1 4.4.4.4.4.",
"4.4.4.4.1 &.3.3.3.3.3.<.v 4.4.4.4.4.4.v <.3.3.3.3.3.*.1 4.4.4.4.",
"4.4.4.4.> O.3.3.3.3.3.O.C . 4.4.4.4.. C +.3.3.3.3.3.o.> 4.4.4.4.",
"4.4.4.4.4.0 3.3.3.3.3.0 4.4.4.4.4.4.4.4.N 3.3.3.3.3.6 4.4.4.4.4.",
"4.4.4.4.4.m 3.3.3.3.3.m 4.4.4.4.4.4.4.4.A 3.3.3.3.3.e 4.4.4.4.4.",
"4.4.4.4.4.m 3.3.3.3.3.m 4.4.4.4.4.4.4.4.A 3.3.3.3.3.e 4.4.4.4.4.",
"4.4.4.4.4.m 3.3.3.3.3.m 4.4.4.4.4.4.4.4.A 3.3.3.3.3.e 4.4.4.4.4.",
"4.4.4.4.4.m 3.3.3.3.3.m 4.4.4.4.4.4.4.4.A 3.3.3.3.3.e 4.4.4.4.4.",
"4.4.4.4.4.m 3.3.3.3.3.m 4.4.4.4.4.4.4.4.A 3.3.3.3.3.e 4.4.4.4.4.",
"4.4.4.4.4.m 3.3.3.3.3.m 4.4.4.4.4.4.4.4.A 3.3.3.3.3.e 4.4.4.4.4.",
"4.4.4.4.4.m 3.3.3.3.3.m 4.4.4.4.4.4.4.4.A 3.3.3.3.3.e 4.4.4.4.4.",
"4.4.4.4.4.m 3.3.3.3.3.m 4.4.4.4.4.4.4.4.A 3.3.3.3.3.e 4.4.4.4.4.",
"4.4.4.4.4.n 2.2.2.2.2.n 4.4.4.4.4.4.4.4.C 2.2.2.2.2.e 4.4.4.4.4.",
"4.4.4.4.4.l ,.,.,.,.,.n 4.4.4.4.4.4.4.4.V ,.,.,.,.,.q 4.4.4.4.4.",
"4.4.4.4.4.j ;.;.;.;.;.j 4.4.4.4.4.4.4.4.V ;.;.;.;.;.9 4.4.4.4.4.",
"4.4.4.4.4.j -.-.-.-.-.j 4.4.4.4.4.4.4.4.G -.-.-.-.-.8 4.4.4.4.4.",
"4.4.4.4.4.h =.=.=.=.=.h 4.4.4.4.4.4.4.4.F =.=.=.=.=.5 4.4.4.4.4.",
"4.4.4.4.4.h %.%.%.%.%.g 4.4.4.4.4.4.4.4.D %.%.%.%.%.5 4.4.4.4.4.",
"4.4.4.4.4.# $.$.$.$.$.d 4.4.4.4.4.4.4.4.S $.$.$.$.$.3 4.4.4.4.4.",
"4.4.4.4.4.- #.#.#.#.#.f 4.4.4.4.4.4.4.4.R #.#.#.#.#.- 4.4.4.4.4.",
"4.4.4.4.4.% @.@.@.@.@.x 4.4.4.4.4.4.4.4.Q @.@.@.@. .% 4.4.4.4.4.",
"4.4.4.4.4.4.c ..X.X.X.W 4.4.4.4.4.4.4.= ..X.X.X.X.E 4.4.4.4.4.4.",
"4.4.4.4.4.4.2 ] } } } { : 4.4.4.4.4.4.K } } } } } p 4.4.4.4.4.4.",
"4.4.4.4.4.4.4.f ' [ [ [ ~ * 4.4.4.$ c [ [ [ [ [ J 4.4.4.4.4.4.4.",
"4.4.4.4.4.4.4.4.u I ` ` ` _ ! L P ^ ` ` ` ` ) z 4.4.4.4.4.4.4.4.",
"4.4.4.4.4.4.4.4.4.4.i H Y ( ( ( ( ( ( / U s & 4.4.4.4.4.4.4.4.4.",
"4.4.4.4.4.4.4.4.4.4.4.4.X O r y t @ + o 4.4.4.4.4.4.4.4.4.4.4.4.",
"4.4.4.4.4.4.4.4.4.4.4.4.4.4.4.4.4.4.4.4.4.4.4.4.4.4.4.4.4.4.4.4."
};
